<svg xmlns="http://www.w3.org/2000/svg" width="122" height="53" fill="none" xmlns:v="https://vecta.io/nano"><g clip-path="url(#A)"><g fill="#3d4a39"><path d="M106.683 1.957c4.108 0 7.629 1.468 10.569 4.391 2.941 2.93 4.407 6.444 4.407 10.556 0 4.118-1.466 7.626-4.407 10.53a16.81 16.81 0 0 1-1.228 1.1c-6.919-3.575-14.228-5.284-14.379-11.625 1.273 2.545 2.007 3.948 4.747 5.318.218-.327.451-.721.684-1.029 1.176-1.562 1.423-.96 4.061-1.538 2.217-.486 2.721-1.469 2.879-3.942-2.015-1.722-1.435-.533-2.677-3.337-.763-1.722-1.406-1.863-3.431-2.295l.207-3.404c-4.548 1.073-7.721 4.896-9.315 9.128-1.989 5.284-1.381 8.851-.383 13.522-.808-.542-1.578-1.174-2.31-1.896-2.922-2.917-4.389-6.425-4.389-10.53 0-4.099 1.467-7.614 4.389-10.556 2.941-2.924 6.461-4.391 10.575-4.391l.001-.001z"/><path d="M109.978 9.223l.26-.624c1.097.455 2.101 1.136 3.009 2.041h0c.918.912 1.606 1.916 2.065 3.011s.689 2.282.689 3.553c0 1.283-.23 2.474-.691 3.57s-1.147 2.091-2.065 2.99-1.919 1.575-3.012 2.026c-1.098.453-2.282.678-3.55.678-1.288 0-2.483-.224-3.585-.676s-2.101-1.127-3.004-2.029l-.001.001c-.908-.905-1.592-1.906-2.048-3.002s-.686-2.281-.686-3.557c0-1.266.229-2.446.685-3.543s1.139-2.102 2.047-3.019c.898-.907 1.896-1.588 2.996-2.044l.26.624c-1.016.42-1.941 1.052-2.773 1.892-.846.855-1.481 1.791-1.904 2.806a8.46 8.46 0 0 0-.632 3.283c0 1.188.211 2.287.633 3.297s1.057 1.94 1.902 2.783v.001c.839.839 1.767 1.466 2.782 1.883s2.124.623 3.327.623c1.182 0 2.28-.208 3.293-.625s1.942-1.044 2.792-1.882l.001-.001c.853-.835 1.49-1.758 1.915-2.767s.636-2.116.636-3.312c0-1.184-.211-2.283-.635-3.295s-1.063-1.944-1.918-2.792h-.001c-.846-.843-1.776-1.476-2.788-1.895h.001zm-3.295-7.266c2.098 0 4.048.376 5.853 1.126s3.454 1.872 4.956 3.365h0c1.501 1.495 2.628 3.144 3.38 4.944S122 15.143 122 17.242s-.377 4.052-1.128 5.85-1.878 3.436-3.38 4.92c-1.496 1.478-3.145 2.586-4.948 3.325s-3.758 1.11-5.861 1.11v-.001c-2.112-.006-4.071-.379-5.875-1.119s-3.451-1.844-4.939-3.315l-.001-.001c-1.493-1.49-2.614-3.133-3.363-4.928s-1.126-3.744-1.126-5.84.376-4.04 1.126-5.841 1.87-3.449 3.363-4.952l.001-.001c1.502-1.493 3.153-2.615 4.957-3.365s3.756-1.126 5.858-1.126l-.001-.002zm5.592 1.749c-1.719-.715-3.582-1.073-5.592-1.073s-3.878.358-5.598 1.073-3.3 1.789-4.738 3.219c-1.428 1.439-2.502 3.017-3.216 4.735s-1.072 3.577-1.072 5.582.358 3.869 1.072 5.581 1.787 3.284 3.216 4.711c1.425 1.408 2.998 2.464 4.718 3.169s3.596 1.063 5.618 1.068v-.002c2.017 0 3.885-.352 5.603-1.056s3.295-1.765 4.727-3.18c1.438-1.42 2.515-2.987 3.233-4.701s1.074-3.576 1.074-5.591-.358-3.875-1.074-5.592-1.795-3.291-3.234-4.725l.001-.001c-1.438-1.43-3.017-2.503-4.738-3.219v.002z"/></g><path d="M103.317 9.15l.031.073-.23.099c-1.942 1.722-3.396 4.035-4.318 6.486-.296.787-.535 1.536-.723 2.256a8.22 8.22 0 0 0 .594 2.438c.422 1.012 1.056 1.94 1.902 2.783v.001c.839.839 1.767 1.466 2.782 1.883s2.124.623 3.327.623c.947 0 1.839-.133 2.678-.401-4.279-2.05-7.614-4.22-7.716-8.483 1.273 2.545 2.007 3.948 4.747 5.318.218-.327.451-.721.684-1.028 1.176-1.562 1.423-.961 4.061-1.538 2.217-.486 2.721-1.469 2.879-3.942-2.015-1.722-1.435-.533-2.677-3.337-.763-1.722-1.405-1.863-3.431-2.295l.207-3.404c-1.825.431-3.428 1.305-4.797 2.469h0z" fill="#ddd5c1"/><path d="M110.22 25.797c-1.095.449-2.274.672-3.537.672-1.288 0-2.483-.225-3.585-.676s-2.101-1.127-3.004-2.029l-.001.001c-.908-.905-1.592-1.906-2.048-3.002-.131-.314-.243-.635-.337-.963-.533 3.29-.026 6.087.69 9.45.846.588 1.735 1.073 2.666 1.455 1.723.707 3.596 1.063 5.618 1.068v-.001c2.017 0 3.885-.352 5.603-1.056 1.304-.535 2.526-1.274 3.665-2.217l-5.731-2.7.001-.001z" fill="#ae7b3c"/><g fill="#3d4a39"><path d="M75.349 2.012c4.095 0 7.623 1.449 10.588 4.354l-4.226 4.211c-1.792-1.76-3.902-2.644-6.324-2.644-2.478 0-4.589.884-6.33 2.644-1.754 1.748-2.635 3.857-2.635 6.326a8.6 8.6 0 0 0 2.635 6.32c1.729 1.748 3.839 2.625 6.33 2.625a8.66 8.66 0 0 0 4.988-1.53c1.38-.933 2.41-2.139 3.097-3.608h-8.416V15.08h15.145c.387 5.013-1.042 9.132-4.302 12.353-2.941 2.905-6.461 4.354-10.569 4.354-4.145 0-7.666-1.449-10.556-4.354-2.922-2.892-4.389-6.4-4.389-10.53 0-4.099 1.467-7.614 4.389-10.555 2.903-2.924 6.424-4.391 10.557-4.391l.019.056h-.001z"/><path d="M75.593 1.676c1.998.028 3.866.398 5.602 1.113 1.806.742 3.465 1.855 4.979 3.338l.244.239-4.706 4.688-.24-.235c-.864-.849-1.805-1.486-2.82-1.911a8.36 8.36 0 0 0-3.267-.635c-1.194 0-2.297.212-3.31.635s-1.941 1.06-2.779 1.907l-.001.003c-.847.843-1.481 1.772-1.903 2.784s-.632 2.113-.632 3.302.211 2.287.633 3.297 1.057 1.94 1.902 2.783l.001.003c.832.842 1.756 1.473 2.769 1.893s2.118.63 3.32.63a8.56 8.56 0 0 0 2.519-.367 8.41 8.41 0 0 0 2.278-1.104h.001A8.7 8.7 0 0 0 81.92 22.5a8.37 8.37 0 0 0 .999-1.451h-8.205v-6.306h15.8l.024.313c.197 2.551-.07 4.879-.802 6.983s-1.933 3.987-3.599 5.635c-1.502 1.484-3.154 2.596-4.957 3.339s-3.754 1.114-5.851 1.114c-2.117 0-4.077-.371-5.88-1.115s-3.441-1.856-4.916-3.339c-1.493-1.478-2.614-3.114-3.364-4.91s-1.126-3.75-1.126-5.859c0-2.094.376-4.04 1.126-5.841s1.87-3.449 3.363-4.952c1.484-1.495 3.127-2.618 4.93-3.367s3.758-1.125 5.867-1.125h.243l.019.058v.001zm5.346 1.736c-1.722-.707-3.584-1.062-5.589-1.062h-.243l-.018-.055c-1.928.028-3.716.385-5.365 1.071-1.719.716-3.289 1.789-4.71 3.219-1.429 1.439-2.502 3.017-3.217 4.736s-1.072 3.577-1.072 5.582c0 2.021.358 3.888 1.072 5.6s1.787 3.277 3.215 4.692h.001c1.413 1.42 2.978 2.484 4.694 3.191s3.592 1.063 5.623 1.063c2.011 0 3.875-.353 5.594-1.062s3.298-1.773 4.737-3.194c1.593-1.575 2.738-3.366 3.437-5.375.67-1.927.933-4.061.786-6.4H75.396v4.952h8.609l-.225.481a9.09 9.09 0 0 1-1.343 2.086 9.39 9.39 0 0 1-1.871 1.658v.001a9.08 9.08 0 0 1-2.461 1.191 9.22 9.22 0 0 1-2.717.398c-1.289 0-2.482-.228-3.579-.682s-2.093-1.136-2.991-2.042l-.001.001c-.908-.905-1.591-1.906-2.048-3.002s-.686-2.282-.686-3.557.229-2.465.686-3.561 1.14-2.098 2.048-3.003l.001.001c.903-.912 1.902-1.598 2.997-2.055s2.288-.688 3.573-.688c1.256 0 2.433.23 3.529.688.998.418 1.929 1.025 2.789 1.822l3.749-3.735c-1.384-1.304-2.889-2.29-4.515-2.959h.001zM51.883 18.434V2.124h5.943v30.05l-17.78-16.876v16.31h-5.925V1.577l17.762 16.857z"/><path d="M51.203 16.856V1.447h7.302v32.304l-17.78-16.875v15.409h-7.284V0l17.761 16.856h.001zm1.359-14.055v17.21L34.801 3.154v27.777h4.566v-17.21l17.78 16.875V2.801h-4.584zm-28.024-.608h5.925v29.378h-5.925V2.193z"/><path d="M24.538 1.854h6.264v30.055h-6.604V1.854h.339.001zm5.585.677h-5.245v28.701h5.245V2.531zM10.529 16.17c1.074 0 1.991-.404 2.759-1.219a4.14 4.14 0 0 0 1.136-2.917c0-1.07-.393-2.009-1.174-2.824-.805-.777-2.022-1.163-3.658-1.163H6.265v8.105H8.55v.019h1.979 0zM.341 2.193h9.62c3.121 0 5.694.995 7.716 2.992.993.983 1.692 1.91 2.104 2.787.499 1.07.75 2.364.75 3.882v.765c0 1.978-.619 3.844-1.86 5.598-.893 1.238-2.073 2.139-3.533 2.712l6.861 10.643h-7.241L6.285 18.577v12.994H.342V2.193H.341z"/><path d="M10.529 15.831c.49 0 .943-.091 1.357-.275s.801-.462 1.153-.834c.349-.377.611-.788.785-1.232a3.98 3.98 0 0 0 .261-1.456 3.56 3.56 0 0 0-.268-1.378c-.18-.43-.449-.834-.808-1.209-.364-.35-.823-.613-1.379-.789-.574-.182-1.252-.273-2.039-.273H6.604v7.428h2.285v.019h1.639.001zm1.631.343c-.504.223-1.047.333-1.631.333H8.21v-.019H5.926V7.707h3.667c.85 0 1.597.102 2.242.308.661.21 1.211.527 1.652.953l.009.009c.419.437.735.91.947 1.419s.32 1.058.32 1.638a4.63 4.63 0 0 1-.309 1.699c-.205.527-.512 1.009-.917 1.447l-.003.003a4.23 4.23 0 0 1-1.375.993h.001zM.341 1.854h9.62c1.601 0 3.065.257 4.392.771s2.518 1.289 3.563 2.32c.506.502.94.991 1.302 1.47s.654.953.87 1.413h.001a7.91 7.91 0 0 1 .587 1.85 11.47 11.47 0 0 1 .194 2.172v.765a9.45 9.45 0 0 1-.481 2.989c-.321.964-.801 1.899-1.441 2.804l-.003.003a7.98 7.98 0 0 1-1.619 1.673 8.28 8.28 0 0 1-1.687.997l6.978 10.826h-8.046L6.623 19.717v12.192H0V1.854H.34.341zm9.62.677H.68v28.701h5.264V17.436l8.995 13.796h6.438l-6.749-10.468.385-.151a7.77 7.77 0 0 0 1.899-1.061c.561-.431 1.056-.941 1.481-1.53h-.001c.601-.849 1.051-1.724 1.351-2.627a8.76 8.76 0 0 0 .447-2.777v-.765c0-.74-.06-1.421-.18-2.045s-.299-1.185-.537-1.695h.001a7.35 7.35 0 0 0-.797-1.292c-.339-.45-.752-.915-1.238-1.396-.977-.965-2.088-1.689-3.329-2.17s-2.627-.724-4.148-.724h-.001z"/></g><g fill="#ae7b3c"><path d="M6.341 51.21c.624 0 1.18-.105 1.671-.314s.908-.503 1.247-.879.599-.827.777-1.351a5.32 5.32 0 0 0 .267-1.728v-9.12h2.028v9.12c0 .866-.136 1.668-.413 2.409a5.56 5.56 0 0 1-1.188 1.919c-.516.541-1.145.967-1.888 1.274S7.265 53 6.341 53s-1.759-.154-2.501-.461a5.48 5.48 0 0 1-1.891-1.274c-.519-.541-.914-1.18-1.191-1.919s-.417-1.543-.417-2.409v-9.12h2.028v9.109c0 .628.091 1.204.269 1.728s.438.974.777 1.351.757.67 1.25.883 1.051.321 1.674.321h.001zm17.056-6.817h.768c.267 0 .48-.035.641-.101a1.14 1.14 0 0 0 .442-.339l5.012-5.654c.14-.182.287-.307.442-.377a1.37 1.37 0 0 1 .567-.105h1.724l-5.738 6.46c-.14.167-.273.303-.403.411a1.95 1.95 0 0 1-.416.268 1.69 1.69 0 0 1 .515.275 2.58 2.58 0 0 1 .451.478l5.99 7.109h-1.766a1.93 1.93 0 0 1-.34-.028c-.094-.018-.179-.046-.249-.084a.82.82 0 0 1-.182-.136 1.38 1.38 0 0 1-.154-.182l-5.191-5.957c-.14-.174-.291-.3-.451-.374s-.407-.108-.735-.108h-.925v6.869H21.37V37.816h2.028v6.575l-.001.001zm21.449.691c.589 0 1.11-.073 1.562-.216s.83-.345 1.135-.607a2.52 2.52 0 0 0 .687-.936c.154-.363.232-.765.232-1.204 0-.894-.294-1.567-.882-2.02s-1.471-.681-2.648-.681h-2.228v5.665h2.144v-.001zm6.957 7.738h-1.808c-.372 0-.645-.143-.82-.429l-3.909-5.361c-.119-.167-.245-.29-.381-.363s-.35-.108-.637-.108h-1.545v6.262h-2.028V37.818h4.256c.952 0 1.776.094 2.469.286s1.268.471 1.72.834a3.33 3.33 0 0 1 1.002 1.312c.217.512.326 1.089.326 1.724a4.31 4.31 0 0 1-.252 1.486 3.9 3.9 0 0 1-.729 1.239c-.319.367-.707.681-1.166.939s-.981.453-1.563.587c.259.147.484.36.672.639l4.393 5.957zm14.711-5.571l-2.364-6.104-.221-.635-.221-.768c-.147.565-.298 1.037-.451 1.413l-2.364 6.093h5.622v.001zm4.246 5.57h-1.576c-.182 0-.329-.046-.442-.136a.83.83 0 0 1-.252-.345l-1.409-3.623h-6.757l-1.409 3.623c-.042.125-.123.237-.241.335s-.267.147-.442.147h-1.576l6.022-15.004h2.06l6.022 15.004.001-.001zm8.701.001h-2.039V37.817h2.039v15.005zm21.428-15.005v15.004H99.87c-.162 0-.294-.028-.403-.084a1.02 1.02 0 0 1-.322-.283l-8.712-11.309.031.513.011.471V52.82h-1.786V37.817h1.051c.091 0 .168.004.232.014a.58.58 0 0 1 .168.053.61.61 0 0 1 .147.105c.049.046.101.105.158.174l8.712 11.298-.035-.53-.018-.485V37.818h1.786v-.001zm16.521 9.434l-2.365-6.104-.22-.635-.221-.768c-.147.565-.298 1.037-.452 1.413l-2.364 6.093h5.622v.001zm4.246 5.57h-1.577c-.182 0-.329-.046-.441-.136s-.197-.206-.252-.345l-1.409-3.623h-6.757l-1.409 3.623c-.042.125-.123.237-.241.335s-.267.147-.442.147h-1.576l6.021-15.004h2.06l6.022 15.004.001-.001z"/></g></g><defs><clipPath id="A"><path fill="#fff" d="M0 0h122v53H0z"/></clipPath></defs></svg>